# xmcd CD database file generated by RipIT.
#
# Track frame offsets:
#	150
#	25695
#	55752
#	90338
#	113665
#	147917
#	174211
#	210319
#	245654
#	334196
#
# Disc length: 4796 seconds
#
# Revision: 2
# Processed by: cddbd v1.5.1PL2 Copyright (c) Steve Scherf et al.
# Submitted via: RipIT 3.4 www.suwald.com/ripit/ripit.html at Mon Jan 9 10:50:22 CET 2006.
#
DISCID=7912ba0a
DTITLE=Massive Attack - 100th Window
DYEAR=2003
DGENRE=Trip-Hop
TTITLE0=Future Proof
TTITLE1=What Your Soul Sings
TTITLE2=Everywhen
TTITLE3=Special Cases
TTITLE4=Batterfly Caught
TTITLE5=A Prayer For England
TTITLE6=Small Time Shot Away
TTITLE7=Name Taken
TTITLE8=Antistar
TTITLE9=I Against I [Featuring Mos Def]
EXTD=ID3G: 27 YEAR: 2003
EXTT0=
EXTT1=
EXTT2=
EXTT3=
EXTT4=
EXTT5=
EXTT6=
EXTT7=
EXTT8=
EXTT9=
PLAYORDER=
